{
    "asset" : {
        "generator" : "Khronos glTF Blender I/O v1.5.17",
        "version" : "2.0"
    },
    "scene" : 0,
    "scenes" : [
        {
            "name" : "Scene",
            "nodes" : [
                0,
                1,
                2,
                3,
                4,
                5,
                6,
                7,
                8,
                15
            ]
        }
    ],
    "nodes" : [
        {
            "mesh" : 0,
            "name" : "root",
            "scale" : [
                10,
                10,
                10
            ]
        },
        {
            "mesh" : 1,
            "name" : "1",
            "rotation" : [
                0.03548477590084076,
                0.05445827543735504,
                -0.7040066123008728,
                0.7072127461433411
            ],
            "scale" : [
                1.766710638999939,
                1.0010265111923218,
                4.0467681884765625
            ],
            "translation" : [
                -9.675127983093262,
                0.31425654888153076,
                -3.0573582649230957
            ]
        },
        {
            "mesh" : 2,
            "name" : "2",
            "rotation" : [
                0.708720326423645,
                -0.08282678574323654,
                -0.08132553845643997,
                0.6958746314048767
            ],
            "scale" : [
                2.5288238525390625,
                1.4120584726333618,
                0.4811166822910309
            ],
            "translation" : [
                -2.967193603515625,
                -7.3267927169799805,
                9.984064102172852
            ]
        },
        {
            "mesh" : 3,
            "name" : "3",
            "rotation" : [
                0.7123355865478516,
                -0.041505370289087296,
                -0.0407530777156353,
                0.6994243860244751
            ],
            "scale" : [
                2.339364767074585,
                -67.03952026367188,
                0.5723115801811218
            ],
            "translation" : [
                7.350309371948242,
                0.6888500452041626,
                9.95407772064209
            ]
        },
        {
            "mesh" : 4,
            "name" : "4",
            "rotation" : [
                0.7134870290756226,
                -0.008998098783195019,
                -0.00883500650525093,
                0.7005549669265747
            ],
            "scale" : [
                1.8055140972137451,
                1.2117745876312256,
                0.4684124290943146
            ],
            "translation" : [
                5.647210597991943,
                6.337882041931152,
                9.766083717346191
            ]
        },
        {
            "mesh" : 5,
            "name" : "5",
            "rotation" : [
                0.7135233879089355,
                -0.005388345569372177,
                -0.005290680099278688,
                0.7005907297134399
            ],
            "scale" : [
                2.3473381996154785,
                0.7113140225410461,
                1.4410245418548584
            ],
            "translation" : [
                -6.329292297363281,
                7.463084697723389,
                10.024506568908691
            ]
        },
        {
            "mesh" : 6,
            "name" : "6",
            "rotation" : [
                0.5653316378593445,
                0.5419565439224243,
                -0.45489031076431274,
                0.4239788055419922
            ],
            "scale" : [
                4.201805591583252,
                -40.5042724609375,
                0.5909359455108643
            ],
            "translation" : [
                9.811086654663086,
                3.628131866455078,
                4.765580177307129
            ]
        },
        {
            "mesh" : 7,
            "name" : "7",
            "rotation" : [
                0.608605682849884,
                0.5599036812782288,
                -0.4127146005630493,
                0.3818032145500183
            ],
            "scale" : [
                4.185561180114746,
                -40.48120880126953,
                0.5888910889625549
            ],
            "translation" : [
                9.63367748260498,
                1.797715425491333,
                4.269100666046143
            ]
        },
        {
            "mesh" : 8,
            "name" : "8",
            "rotation" : [
                -0.07151774317026138,
                -0.0028183513786643744,
                -0.003791065653786063,
                -0.9974281191825867
            ],
            "scale" : [
                4.293154716491699,
                -0.8804904222488403,
                1.6884980201721191
            ],
            "translation" : [
                -1.5418223142623901,
                -9.642422676086426,
                2.8691110610961914
            ]
        },
        {
            "name" : "Node_5"
        },
        {
            "children" : [
                9
            ],
            "name" : "\ufffd\ufffd\ufffd\ufffd\ufffd\ufffd_Cinema_4D",
            "rotation" : [
                -0.009840540587902069,
                0.09882719069719315,
                -0.09810825437307358,
                0.9902076125144958
            ],
            "translation" : [
                -497.1609191894531,
                110.5306396484375,
                5.633099555969238
            ]
        },
        {
            "name" : "\ufffd\ufffd\ufffd\ufffd\ufffd\ufffd\ufffd\ufffd\ufffd\ufffd_1"
        },
        {
            "children" : [
                10,
                11
            ],
            "name" : "RootNode"
        },
        {
            "children" : [
                12
            ],
            "name" : "00a1d5d896df462d8d9d46baad009007.fbx",
            "rotation" : [
                0.7071068286895752,
                0,
                0,
                0.7071068286895752
            ]
        },
        {
            "children" : [
                13
            ],
            "name" : "RootNode (model correction matrix)"
        },
        {
            "children" : [
                14
            ],
            "name" : "RootNode (gltf orientation matrix)",
            "rotation" : [
                -0.484697163105011,
                -0.582901120185852,
                0.5148482322692871,
                0.4002828001976013
            ],
            "scale" : [
                0.009999999776482582,
                0.009999999776482582,
                0.009999999776482582
            ],
            "translation" : [
                9.857341766357422,
                1.0385980606079102,
                -1.978738784790039
            ]
        }
    ],
    "materials" : [
        {
            "alphaMode" : "BLEND",
            "doubleSided" : true,
            "name" : "Material.011",
            "pbrMetallicRoughness" : {
                "baseColorTexture" : {
                    "index" : 0
                },
                "metallicFactor" : 0,
                "roughnessFactor" : 0.5
            }
        },
        {
            "alphaMode" : "BLEND",
            "doubleSided" : true,
            "name" : "Material.012",
            "pbrMetallicRoughness" : {
                "baseColorFactor" : [
                    1,
                    1,
                    1,
                    0
                ],
                "metallicFactor" : 0,
                "roughnessFactor" : 0
            }
        },
        {
            "alphaMode" : "BLEND",
            "doubleSided" : true,
            "name" : "Material.013",
            "pbrMetallicRoughness" : {
                "baseColorFactor" : [
                    0.800000011920929,
                    0.800000011920929,
                    0.800000011920929,
                    0
                ],
                "metallicFactor" : 0,
                "roughnessFactor" : 0.5
            }
        },
        {
            "alphaMode" : "BLEND",
            "doubleSided" : true,
            "name" : "Material.014",
            "pbrMetallicRoughness" : {
                "baseColorFactor" : [
                    0.800000011920929,
                    0.800000011920929,
                    0.800000011920929,
                    0
                ],
                "metallicFactor" : 0,
                "roughnessFactor" : 0.5
            }
        },
        {
            "alphaMode" : "BLEND",
            "doubleSided" : true,
            "name" : "Material.015",
            "pbrMetallicRoughness" : {
                "baseColorFactor" : [
                    0.800000011920929,
                    0.800000011920929,
                    0.800000011920929,
                    0
                ],
                "metallicFactor" : 0,
                "roughnessFactor" : 0.5
            }
        },
        {
            "alphaMode" : "BLEND",
            "doubleSided" : true,
            "name" : "Material.016",
            "pbrMetallicRoughness" : {
                "baseColorFactor" : [
                    0.800000011920929,
                    0.800000011920929,
                    0.800000011920929,
                    0
                ],
                "metallicFactor" : 0,
                "roughnessFactor" : 0.5
            }
        },
        {
            "alphaMode" : "BLEND",
            "doubleSided" : true,
            "name" : "Material.017",
            "pbrMetallicRoughness" : {
                "baseColorFactor" : [
                    0.800000011920929,
                    0.800000011920929,
                    0.800000011920929,
                    0
                ],
                "metallicFactor" : 0,
                "roughnessFactor" : 0.5
            }
        },
        {
            "alphaMode" : "BLEND",
            "doubleSided" : true,
            "name" : "Material.018",
            "pbrMetallicRoughness" : {
                "baseColorFactor" : [
                    0.800000011920929,
                    0.800000011920929,
                    0.800000011920929,
                    0
                ],
                "metallicFactor" : 0,
                "roughnessFactor" : 0.5
            }
        },
        {
            "alphaMode" : "BLEND",
            "doubleSided" : true,
            "name" : "Material.019",
            "pbrMetallicRoughness" : {
                "baseColorFactor" : [
                    0.800000011920929,
                    0.800000011920929,
                    0.800000011920929,
                    0
                ],
                "metallicFactor" : 0,
                "roughnessFactor" : 0.5
            }
        }
    ],
    "meshes" : [
        {
            "name" : "root.001",
            "primitives" : [
                {
                    "attributes" : {
                        "POSITION" : 0,
                        "NORMAL" : 1,
                        "TEXCOORD_0" : 2
                    },
                    "indices" : 3,
                    "material" : 0
                }
            ]
        },
        {
            "name" : "https://yandex.ru/.001",
            "primitives" : [
                {
                    "attributes" : {
                        "POSITION" : 4,
                        "NORMAL" : 5,
                        "TEXCOORD_0" : 6
                    },
                    "indices" : 7,
                    "material" : 1
                }
            ]
        },
        {
            "name" : "https://yandex.ru/.009",
            "primitives" : [
                {
                    "attributes" : {
                        "POSITION" : 8,
                        "NORMAL" : 9,
                        "TEXCOORD_0" : 10
                    },
                    "indices" : 7,
                    "material" : 2
                }
            ]
        },
        {
            "name" : "https://yandex.ru/.010",
            "primitives" : [
                {
                    "attributes" : {
                        "POSITION" : 11,
                        "NORMAL" : 12,
                        "TEXCOORD_0" : 13
                    },
                    "indices" : 7,
                    "material" : 3
                }
            ]
        },
        {
            "name" : "https://yandex.ru/.011",
            "primitives" : [
                {
                    "attributes" : {
                        "POSITION" : 14,
                        "NORMAL" : 15,
                        "TEXCOORD_0" : 16
                    },
                    "indices" : 7,
                    "material" : 4
                }
            ]
        },
        {
            "name" : "https://yandex.ru/.012",
            "primitives" : [
                {
                    "attributes" : {
                        "POSITION" : 17,
                        "NORMAL" : 18,
                        "TEXCOORD_0" : 19
                    },
                    "indices" : 7,
                    "material" : 5
                }
            ]
        },
        {
            "name" : "https://yandex.ru/.013",
            "primitives" : [
                {
                    "attributes" : {
                        "POSITION" : 20,
                        "NORMAL" : 21,
                        "TEXCOORD_0" : 22
                    },
                    "indices" : 7,
                    "material" : 6
                }
            ]
        },
        {
            "name" : "https://yandex.ru/.014",
            "primitives" : [
                {
                    "attributes" : {
                        "POSITION" : 23,
                        "NORMAL" : 24,
                        "TEXCOORD_0" : 25
                    },
                    "indices" : 7,
                    "material" : 7
                }
            ]
        },
        {
            "name" : "https://yandex.ru/.015",
            "primitives" : [
                {
                    "attributes" : {
                        "POSITION" : 26,
                        "NORMAL" : 27,
                        "TEXCOORD_0" : 28
                    },
                    "indices" : 7,
                    "material" : 8
                }
            ]
        }
    ],
    "textures" : [
        {
            "sampler" : 0,
            "source" : 0
        }
    ],
    "images" : [
        {
            "mimeType" : "image/png",
            "name" : "ct",
            "uri" : "ct/ct.png"
        }
    ],
    "accessors" : [
        {
            "bufferView" : 0,
            "componentType" : 5126,
            "count" : 24,
            "max" : [
                1,
                1,
                1
            ],
            "min" : [
                -1,
                -1,
                -1
            ],
            "type" : "VEC3"
        },
        {
            "bufferView" : 1,
            "componentType" : 5126,
            "count" : 24,
            "type" : "VEC3"
        },
        {
            "bufferView" : 2,
            "componentType" : 5126,
            "count" : 24,
            "type" : "VEC2"
        },
        {
            "bufferView" : 3,
            "componentType" : 5123,
            "count" : 36,
            "type" : "SCALAR"
        },
        {
            "bufferView" : 4,
            "componentType" : 5126,
            "count" : 4,
            "max" : [
                1,
                0,
                1
            ],
            "min" : [
                -1,
                0,
                -1
            ],
            "type" : "VEC3"
        },
        {
            "bufferView" : 5,
            "componentType" : 5126,
            "count" : 4,
            "type" : "VEC3"
        },
        {
            "bufferView" : 6,
            "componentType" : 5126,
            "count" : 4,
            "type" : "VEC2"
        },
        {
            "bufferView" : 7,
            "componentType" : 5123,
            "count" : 6,
            "type" : "SCALAR"
        },
        {
            "bufferView" : 8,
            "componentType" : 5126,
            "count" : 4,
            "max" : [
                1,
                0,
                1
            ],
            "min" : [
                -1,
                0,
                -1
            ],
            "type" : "VEC3"
        },
        {
            "bufferView" : 9,
            "componentType" : 5126,
            "count" : 4,
            "type" : "VEC3"
        },
        {
            "bufferView" : 10,
            "componentType" : 5126,
            "count" : 4,
            "type" : "VEC2"
        },
        {
            "bufferView" : 11,
            "componentType" : 5126,
            "count" : 4,
            "max" : [
                1,
                0,
                1
            ],
            "min" : [
                -1,
                0,
                -1
            ],
            "type" : "VEC3"
        },
        {
            "bufferView" : 12,
            "componentType" : 5126,
            "count" : 4,
            "type" : "VEC3"
        },
        {
            "bufferView" : 13,
            "componentType" : 5126,
            "count" : 4,
            "type" : "VEC2"
        },
        {
            "bufferView" : 14,
            "componentType" : 5126,
            "count" : 4,
            "max" : [
                1,
                0,
                1
            ],
            "min" : [
                -1,
                0,
                -1
            ],
            "type" : "VEC3"
        },
        {
            "bufferView" : 15,
            "componentType" : 5126,
            "count" : 4,
            "type" : "VEC3"
        },
        {
            "bufferView" : 16,
            "componentType" : 5126,
            "count" : 4,
            "type" : "VEC2"
        },
        {
            "bufferView" : 17,
            "componentType" : 5126,
            "count" : 4,
            "max" : [
                1,
                0,
                1
            ],
            "min" : [
                -1,
                0,
                -1
            ],
            "type" : "VEC3"
        },
        {
            "bufferView" : 18,
            "componentType" : 5126,
            "count" : 4,
            "type" : "VEC3"
        },
        {
            "bufferView" : 19,
            "componentType" : 5126,
            "count" : 4,
            "type" : "VEC2"
        },
        {
            "bufferView" : 20,
            "componentType" : 5126,
            "count" : 4,
            "max" : [
                1,
                0,
                1
            ],
            "min" : [
                -1,
                0,
                -1
            ],
            "type" : "VEC3"
        },
        {
            "bufferView" : 21,
            "componentType" : 5126,
            "count" : 4,
            "type" : "VEC3"
        },
        {
            "bufferView" : 22,
            "componentType" : 5126,
            "count" : 4,
            "type" : "VEC2"
        },
        {
            "bufferView" : 23,
            "componentType" : 5126,
            "count" : 4,
            "max" : [
                1,
                0,
                1
            ],
            "min" : [
                -1,
                0,
                -1
            ],
            "type" : "VEC3"
        },
        {
            "bufferView" : 24,
            "componentType" : 5126,
            "count" : 4,
            "type" : "VEC3"
        },
        {
            "bufferView" : 25,
            "componentType" : 5126,
            "count" : 4,
            "type" : "VEC2"
        },
        {
            "bufferView" : 26,
            "componentType" : 5126,
            "count" : 4,
            "max" : [
                1,
                0,
                1
            ],
            "min" : [
                -1,
                0,
                -1
            ],
            "type" : "VEC3"
        },
        {
            "bufferView" : 27,
            "componentType" : 5126,
            "count" : 4,
            "type" : "VEC3"
        },
        {
            "bufferView" : 28,
            "componentType" : 5126,
            "count" : 4,
            "type" : "VEC2"
        }
    ],
    "bufferViews" : [
        {
            "buffer" : 0,
            "byteLength" : 288,
            "byteOffset" : 0
        },
        {
            "buffer" : 0,
            "byteLength" : 288,
            "byteOffset" : 288
        },
        {
            "buffer" : 0,
            "byteLength" : 192,
            "byteOffset" : 576
        },
        {
            "buffer" : 0,
            "byteLength" : 72,
            "byteOffset" : 768
        },
        {
            "buffer" : 0,
            "byteLength" : 48,
            "byteOffset" : 840
        },
        {
            "buffer" : 0,
            "byteLength" : 48,
            "byteOffset" : 888
        },
        {
            "buffer" : 0,
            "byteLength" : 32,
            "byteOffset" : 936
        },
        {
            "buffer" : 0,
            "byteLength" : 12,
            "byteOffset" : 968
        },
        {
            "buffer" : 0,
            "byteLength" : 48,
            "byteOffset" : 980
        },
        {
            "buffer" : 0,
            "byteLength" : 48,
            "byteOffset" : 1028
        },
        {
            "buffer" : 0,
            "byteLength" : 32,
            "byteOffset" : 1076
        },
        {
            "buffer" : 0,
            "byteLength" : 48,
            "byteOffset" : 1108
        },
        {
            "buffer" : 0,
            "byteLength" : 48,
            "byteOffset" : 1156
        },
        {
            "buffer" : 0,
            "byteLength" : 32,
            "byteOffset" : 1204
        },
        {
            "buffer" : 0,
            "byteLength" : 48,
            "byteOffset" : 1236
        },
        {
            "buffer" : 0,
            "byteLength" : 48,
            "byteOffset" : 1284
        },
        {
            "buffer" : 0,
            "byteLength" : 32,
            "byteOffset" : 1332
        },
        {
            "buffer" : 0,
            "byteLength" : 48,
            "byteOffset" : 1364
        },
        {
            "buffer" : 0,
            "byteLength" : 48,
            "byteOffset" : 1412
        },
        {
            "buffer" : 0,
            "byteLength" : 32,
            "byteOffset" : 1460
        },
        {
            "buffer" : 0,
            "byteLength" : 48,
            "byteOffset" : 1492
        },
        {
            "buffer" : 0,
            "byteLength" : 48,
            "byteOffset" : 1540
        },
        {
            "buffer" : 0,
            "byteLength" : 32,
            "byteOffset" : 1588
        },
        {
            "buffer" : 0,
            "byteLength" : 48,
            "byteOffset" : 1620
        },
        {
            "buffer" : 0,
            "byteLength" : 48,
            "byteOffset" : 1668
        },
        {
            "buffer" : 0,
            "byteLength" : 32,
            "byteOffset" : 1716
        },
        {
            "buffer" : 0,
            "byteLength" : 48,
            "byteOffset" : 1748
        },
        {
            "buffer" : 0,
            "byteLength" : 48,
            "byteOffset" : 1796
        },
        {
            "buffer" : 0,
            "byteLength" : 32,
            "byteOffset" : 1844
        }
    ],
    "samplers" : [
        {
            "magFilter" : 9729,
            "minFilter" : 9987
        }
    ],
    "buffers" : [
        {
            "byteLength" : 1876,
            "uri" : "ct.bin"
        }
    ]
}
